<?xml version="1.0" standalone="no"?>
<!DOCTYPE svg PUBLIC "-//W3C//DTD SVG 20010904//EN"
 "http://www.w3.org/TR/2001/REC-SVG-20010904/DTD/svg10.dtd">
<svg version="1.0" xmlns="http://www.w3.org/2000/svg"
 width="78.000000pt" height="50.000000pt" viewBox="0 0 78.000000 50.000000"
 preserveAspectRatio="xMidYMid meet">
<metadata>
Created by potrace 1.10, written by Peter Selinger 2001-2011
</metadata>
<g transform="translate(0.000000,50.000000) scale(0.100000,-0.100000)"
fill="#000000" stroke="none">
<path d="M193 403 c-7 -2 -13 -13 -13 -23 0 -14 -7 -18 -24 -17 -14 1 -26 -2
-28 -8 -2 -6 30 -10 82 -10 49 0 86 4 87 10 2 6 -18 9 -48 6 -40 -2 -50 0 -47
10 4 11 37 13 159 11 85 -1 159 -2 164 -2 7 0 7 -36 -2 -112 -6 -62 -12 -114
-13 -115 0 -2 -42 -3 -94 -3 -85 0 -94 2 -99 20 -7 27 -61 27 -84 0 -29 -33
-53 -26 -53 15 0 32 2 35 30 35 17 0 30 5 30 10 0 6 -38 10 -95 10 -57 0 -95
-4 -95 -10 0 -5 25 -10 56 -10 l56 0 -2 -32 c-3 -53 -1 -58 25 -58 13 0 35
-11 49 -25 31 -31 41 -31 72 0 24 24 31 25 139 25 103 0 114 -2 120 -19 3 -10
16 -21 28 -25 22 -6 67 17 67 34 0 6 11 10 24 10 29 0 36 16 36 79 0 40 -6 54
-36 89 -33 39 -39 42 -85 42 -48 0 -49 1 -43 26 4 17 2 29 -7 35 -15 9 -335
11 -356 2z m476 -120 c30 -37 39 -80 25 -117 -9 -22 -31 -20 -37 4 -4 15 -14
20 -36 20 -19 0 -38 -8 -48 -20 -22 -25 -46 -26 -39 -2 2 9 7 47 11 85 l7 67
43 0 c38 0 47 -5 74 -37z m-366 -125 c7 -20 -12 -48 -33 -48 -24 0 -33 15 -25
40 7 22 50 28 58 8z m340 0 c7 -21 -12 -48 -34 -48 -22 0 -34 22 -25 45 7 18
53 20 59 3z"/>
<path d="M570 286 c0 -8 -3 -21 -6 -30 -5 -14 4 -16 57 -16 l63 0 -29 30 c-31
32 -85 42 -85 16z"/>
<path d="M84 321 c-2 -2 -4 -8 -4 -13 0 -11 187 -10 195 1 5 9 -182 21 -191
12z"/>
<path d="M100 270 c0 -6 43 -10 110 -10 67 0 110 4 110 10 0 6 -43 10 -110 10
-67 0 -110 -4 -110 -10z"/>
</g>
</svg>
